<svg id="Layer_2" height="512" viewBox="0 0 128 128" width="512" xmlns="http://www.w3.org/2000/svg" data-name="Layer 2"><path fill="#fff"  d="m126.25 48.842h-12.377a24.421 24.421 0 0 0 3.562-12.7c0-2.183 0-4.366 0-6.548 0-1.882.137-3.821 0-5.7-.176-2.392-3.508-1.75-5.143-1.75-6.026 0-12.264-.548-17.97 1.775-.33.134-1.255.774-1.59.715-.366-.065-1.109-.992-1.437-1.238a14.4 14.4 0 0 0 -5.964-2.643c-.345-.066-1.67-.026-1.886-.236s-.267-1.287-.369-1.618a11.446 11.446 0 0 0 -8.038-7.666 18.811 18.811 0 0 0 -4.7-.346c-1.421 0-3.34-.205-3.467 1.75-.3 4.562 3.149 8.968 7.251 10.56a14.663 14.663 0 0 0 -2.2 1.948c-.275.3-.609.971-.95 1.145-.3.152-.843-.327-1.215-.519a12.521 12.521 0 0 0 -11.371-.071c-.207.1-1.034.746-1.261.724-.182-.018-.766-.963-.939-1.155a14.623 14.623 0 0 0 -2.312-2.069 11.446 11.446 0 0 0 7.159-9.112c.224-1.747-.085-3.18-2.086-3.2-1.062-.01-2.126-.013-3.187 0a11.35 11.35 0 0 0 -10.836 8.012 8.374 8.374 0 0 1 -.324 1.34c-.2.383-.19.277-.679.328-.368.037-.733.09-1.1.156a14.458 14.458 0 0 0 -6.12 2.671c-.346.26-.93 1.017-1.323 1.128-.43.121-1.217-.406-1.7-.605a24.2 24.2 0 0 0 -3.67-1.167 24.505 24.505 0 0 0 -5.5-.608c-2.232-.006-4.464 0-6.7 0h-3.882a11.545 11.545 0 0 0 -1.869.019c-2.135.356-1.492 3.8-1.492 5.305q0 4.17 0 8.341a24.785 24.785 0 0 0 3.562 13.034h-10.016c-1.243 0-3.3-.38-3.948 1.012a4.1 4.1 0 0 0 -.163 1.703v2.962a74.094 74.094 0 0 0 .863 13.562 48.521 48.521 0 0 0 21.177 31.826q1 .651 2.022 1.251c.379.221 1.64.664 1.829 1.027a3.516 3.516 0 0 1 0 1.14v11.375c0 1.225.349 2.33 1.808 2.419 1.249.076 2.526 0 3.776 0h65.825c1.01 0 2.051.073 3.059 0 1.955-.14 1.75-2 1.75-3.414v-6.222a33.668 33.668 0 0 1 0-4.961c.014-.085-.04-.254 0-.332.189-.362 1.442-.8 1.819-1.021a48.545 48.545 0 0 0 23.594-35.317 95.251 95.251 0 0 0 .478-12.958c0-1.411.406-4.052-1.75-4.052zm-2.142 15.958a45.65 45.65 0 0 1 -11.7 25.134 44.452 44.452 0 0 1 -10.174 8.192 5.8 5.8 0 0 1 -2.994 1.258h-69.888a7.005 7.005 0 0 1 -1.279 0 7.142 7.142 0 0 1 -1.659-.886c-1.068-.6-2.112-1.263-3.13-1.946a42.78 42.78 0 0 1 -4.916-3.861 45 45 0 0 1 -14.675-29.9h118.783a5.364 5.364 0 0 1 1.62 0 .71.71 0 0 0 .211 0c-.053.671-.116 1.34-.199 2.009zm-10.173-39.157v6.9a35.423 35.423 0 0 1 -.626 8.771 20.514 20.514 0 0 1 -1.364 3.794 12.06 12.06 0 0 1 -2.086 3.466c-.455.426-1.03.271-1.691.271h-14.945c-.034-.239 1.218-1.232 1.381-1.395l3.396-3.395 7.648-7.647c.515-.515 1.086-1.009 1.562-1.562a1.753 1.753 0 1 0 -2.617-2.332c-2.135 2.037-4.178 4.178-6.264 6.264l-6.268 6.267a12.68 12.68 0 0 0 -7.822-6.565 21.032 21.032 0 0 1 14.225-12.252c3.657-.9 7.6-.585 11.337-.585zm-43.363-11.257a11.086 11.086 0 0 1 5.137.8 7.909 7.909 0 0 1 4.181 5.279 11.1 11.1 0 0 1 -5.137-.8 7.914 7.914 0 0 1 -4.181-5.279zm12.011 9.583a11.035 11.035 0 0 1 6.97 2.495 24.028 24.028 0 0 0 -6.658 7 26.188 26.188 0 0 0 -2.03 4.049c-.2.5-.114.407-.533.475a7.818 7.818 0 0 1 -1.2 0h-1.442c-.2 0-.819.113-.979 0-.278-.2-.124-1.8-.167-2.21a12.914 12.914 0 0 0 -1.187-4.234 12.6 12.6 0 0 0 -1.012-1.744 8.526 8.526 0 0 1 -.595-.792c-.245-.461-.175-.378.218-.874a11.06 11.06 0 0 1 8.615-4.165zm-12.417 6.324a9.3 9.3 0 0 1 2.934 6.833c.017 1.508-.5 4.1 1.621 4.352 3.094.367 6.276-.533 9.277.619a9.181 9.181 0 0 1 5.671 6.745h-20.69a23.28 23.28 0 0 1 -2.845 0c-.551-.07-.384-.106-.384-.757v-9.645c0-.855.212-2.165-.282-2.924a1.769 1.769 0 0 0 -2.936 0 2.351 2.351 0 0 0 -.282 1.351c-.012 1.338 0 2.677 0 4.015v7.2c0 .1.077.682 0 .757-.165.16-1.29 0-1.505 0h-14.567c-2.437 0-5.012.24-7.44 0-.134-.013-.276 0-.411 0a9.177 9.177 0 0 1 6.77-7.086 28.043 28.043 0 0 1 6.523-.269 4.712 4.712 0 0 0 2.479-.282c1-.651.8-1.922.8-2.949 0-3.253.748-6.214 3.394-8.358a9.146 9.146 0 0 1 11.873.398zm-14.42-15.907h1.682a7.914 7.914 0 0 1 -4.181 5.279 11.1 11.1 0 0 1 -5.137.8 7.917 7.917 0 0 1 7.636-6.079zm-10.329 9.583a11.049 11.049 0 0 1 7.83 3.278c.3.3 1.22 1.118 1.2 1.528-.009.169-.544.682-.636.81q-.336.462-.628.953a12.557 12.557 0 0 0 -1.56 4.1 13.308 13.308 0 0 0 -.224 2.19c-.005.234.127.966 0 1.121-.175.208-1.439.043-1.74.043a7.052 7.052 0 0 1 -2.251 0c-.313-.154-.5-1.043-.66-1.415a23.331 23.331 0 0 0 -1.056-2.125 24.058 24.058 0 0 0 -7.242-7.983 11.035 11.035 0 0 1 6.967-2.5zm-31.352 12.318v-10.1c0-.65-.012-.548.647-.548 5.735 0 12.065-.712 17.5 1.44a21.07 21.07 0 0 1 11.554 11.4 12.68 12.68 0 0 0 -7.822 6.565l-12.185-12.183c-.162-.161-.317-.341-.49-.49a1.771 1.771 0 0 0 -2.969.968c-.168 1.083.751 1.764 1.426 2.439l7.251 7.251 4.048 4.047c.2.2 1.794 1.467 1.752 1.766h-14.3c-.559 0-1.147.053-1.7 0-.7-.068-.777-.434-1.224-1.1a20.665 20.665 0 0 1 -3.488-11.455zm-10.565 16.055h119.98c.189 0 .725-.1.89 0 .2.12.022-.052.13.254a5.444 5.444 0 0 1 0 1.476v4.375c0 .131.09.748 0 .841-.034.034-.184-.016-.229 0a6.512 6.512 0 0 1 -1.818 0h-118.284c-.535 0-.55.127-.669-.3a6.985 6.985 0 0 1 0-1.654zm95.109 61.272h-67.387a8.1 8.1 0 0 1 -1.5 0c-.408-.082-.221.124-.329-.293a8.064 8.064 0 0 1 0-1.811v-7.774c0-.44-.13-.7.169-.85a3.976 3.976 0 0 1 1.265 0h66.86c.135 0 .787-.1.892 0 .243.22.032 1.76.032 2.1v8.624z"/></svg>