<?xml version="1.0" encoding="utf-8"?>
<svg version="1.1" id="Capa_1" xmlns="http://www.w3.org/2000/svg" xmlns:xlink="http://www.w3.org/1999/xlink" x="0px" y="0px"
	 viewBox="0 0 512 512" enable-background="new 0 0 512 512" xml:space="preserve">
<g>
	<g>
		<g>
			<path fill="current" d="M507.5,175.2c-3.6-4.3-9-6.8-14.6-6.8h-53L335.7,26.6c-6.2-8.5-18.2-10.3-26.7-4.1
				c-8.5,6.2-10.3,18.2-4.1,26.7l87.5,119.2h-278L202,49.2c6.2-8.5,4.4-20.5-4.1-26.7c-8.5-6.2-20.5-4.4-26.7,4.1L67,168.4H19.1
				c-5.6,0-10.9,2.5-14.6,6.8s-5.2,9.9-4.3,15.5L48,477.3c1.5,9.2,9.5,16,18.8,16h378.3c9.3,0,17.3-6.8,18.8-16l47.8-286.6
				C512.7,185.1,511.1,179.5,507.5,175.2z M429,455H83L41.7,206.6h428.7L429,455z"/>
		</g>
	</g>
	<g>
		<g>
			<path fill="current" d="M256,251.2c-10.6,0-19.1,8.6-19.1,19.1v125.5c0,10.6,8.6,19.1,19.1,19.1s19.1-8.5,19.1-19.1V270.3
				C275.1,259.8,266.6,251.2,256,251.2z"/>
		</g>
	</g>
	<g>
		<g>
			<path fill="current" d="M354.7,251.2c-10.6,0-19.1,8.6-19.1,19.1v125.5c0,10.6,8.6,19.1,19.1,19.1c10.6,0,19.1-8.5,19.1-19.1
				V270.3C373.8,259.8,365.3,251.2,354.7,251.2z"/>
		</g>
	</g>
	<g>
		<g>
			<path fill="current" d="M157.3,251.2c-10.6,0-19.1,8.6-19.1,19.1v125.5c0,10.6,8.6,19.1,19.1,19.1s19.1-8.5,19.1-19.1V270.3
				C176.4,259.8,167.8,251.2,157.3,251.2z"/>
		</g>
	</g>
</g>
</svg>
